<svg xmlns="http://www.w3.org/2000/svg" version="1.1" xmlns:xlink="http://www.w3.org/1999/xlink" viewBox="0 0 700 700" style="overflow: hidden; display: block;" width="700" height="700"><defs></defs><g id="two-0" transform="matrix(1 0 0 1 0 0)" opacity="1"><path transform="matrix(1 0 0 1 350 350)" id="two-214" d="M 207.875851 67.542958 C 192.032256 114.913996 311.105621 164.613681 277.763893 201.807281 C 234.567498 249.994027 152.928074 101.914002 94.99035 130.743 C 68.498743 143.924852 98.564536 207.599372 70.508444 217.00268 C 42.848994 226.273049 28.94651 167.3008 0 163.68355 C -21.896651 160.947274 -41.882473 179.786243 -61.621485 189.651428 C -106.802133 212.231862 -154.655379 298.666381 -193.826123 266.778771 C -238.794925 230.171154 -112.901103 152.513052 -137.912053 100.198971 C -149.999151 74.917026 -210.56014 97.822197 -217.53407 70.681103 C -225.206631 40.821084 -152.98405 30.635489 -156.441753 0 C -162.145171 -50.532674 -260.514543 -44.50173 -280.663721 -91.193171 C -294.292446 -122.774847 -297.277131 -176.747213 -267.901524 -194.641851 C -215.96489 -226.279912 -144.9709 -96.094801 -95.028846 -130.795986 C -51.55179 -161.005103 -144.216061 -272.690071 -94.624898 -291.225489 C -50.158571 -307.845425 -37.093664 -212.501101 -0.000001 -182.877858 C 14.813626 -171.047598 31.664671 -157.184156 50.555714 -155.594492 C 79.34946 -153.171525 104.583174 -183.717928 133.478685 -183.71765 C 161.840661 -183.717377 200.075487 -180.309799 214.87001 -156.112201 C 230.640285 -130.318683 186.921126 -91.952679 201.516814 -65.476783 C 227.280422 -18.742798 348.620723 -53.359645 349.380444 -0.000001 C 350.117076 51.738083 224.288165 18.471501 207.875851 67.542958 Z " fill="hsl(265, 55%, 20%)" stroke="undefined" stroke-width="1" stroke-opacity="1" fill-opacity="1" visibility="visible" stroke-linecap="butt" stroke-linejoin="miter" stroke-miterlimit="4"></path></g></svg>